# xmcd
#
# Track frame offsets:
#	150
#	14293
#	30942
#	47244
#	62109
#	76153
#	95927
#	112461
#	125149
#	143328
#	162159
#	177172
#
# Disc length: 2650 seconds
#
# Revision: 471604253
# Processed by: cddbd v1.5.2PL0 Copyright (c) Steve Scherf et al.
# Submitted via: EZCDAudioConverter 8.5.0.1
#
DISCID=a00a580c
DTITLE=Rhonda Vincent - Taken
DYEAR=2010
DGENRE=Country
TTITLE0=Rhonda Vincent - The Court Of Love
TTITLE1=Rhonda Vincent and Richard Marx - Taken
TTITLE2=Rhonda Vincent and Dolly Parton - In The Garden By The Fountain
TTITLE3=Rhonda Vincent - Song Of A Whippoorwill
TTITLE4=Rhonda Vincent - Back On My Mind
TTITLE5=Rhonda Vincent With Sally Berry and Tensel Sandker - When The Bloom Is O
TTITLE5=ff The Rose
TTITLE6=Rhonda Vincent - Ragin' Live For You Tonight
TTITLE7=Rhonda Vincent - Sweet Summertime
TTITLE8=Rhonda Vincent - Tonight My Baby's Coming Home
TTITLE9=Rhonda Vincent - A Little At A Time
TTITLE10=Rhonda Vincent - God Is Watching
TTITLE11=Rhonda Vincent With Isaac Moore and Hannah Harper - You Must Have A Dre
TTITLE11=am
EXTD=
EXTT0=
EXTT1=
EXTT2=
EXTT3=
EXTT4=
EXTT5=
EXTT6=
EXTT7=
EXTT8=
EXTT9=
EXTT10=
EXTT11=
PLAYORDER=
